#!OML:ASF H:\BabyWalks\Project 1\Capture day 1\Session 1\baby.ASF
:FULLY-SPECIFIED
:DEGREES
921
root 43.4756 17.3327 0.247945 492.297 97.7629 486.771
lowerback 18.8089 0.391375 1.87403
upperback 5.12174 1.24467 1.48271
thorax -5.00701 0.718769 0.220993
lowerneck -0.888063 1.0953 6.23496
upperneck -16.3845 1.21508 -6.69702
head -4.65775 0.786292 -3.18032
rclavicle 6.06293e-015 7.15625e-015
rhumerus -44.4672 2.4854 -80.1387
rradius 38.0297
rwrist 7.48602
rhand 0.629099 -15.565
rfingers 7.12502
rthumb 26.1928 -43.7778
lclavicle 6.06293e-015 7.15625e-015
lhumerus -45.2139 -15.6722 80.4979
lradius 52.3498
lwrist 1.0114
lhand -9.70828 3.65419
lfingers 7.12502
lthumb 16.2645 32.992
rfemur 5.33372 15.9783 21.7867
rtibia 18.9875
rfoot -15.1619 10.2298
rtoes -15.2954
lfemur -28.8168 -3.09779 -9.05314
ltibia 38.7509
lfoot -19.2747 -13.9072
ltoes 1.83827
922
root 43.4711 17.3359 0.254669 492.58 97.7286 487.057
lowerback 18.7966 0.391253 1.84527
upperback 5.11182 1.23654 1.46063
thorax -5.01128 0.714459 0.215753
lowerneck -0.877403 1.13186 6.23834
upperneck -16.3585 1.2527 -6.79206
head -4.64745 0.80979 -3.21148
rclavicle -2.0773e-014 -1.63003e-014
rhumerus -44.3798 2.49212 -80.1798
rradius 38.2926
rwrist 6.86334
rhand 0.45622 -15.587
rfingers 7.12502
rthumb 26.0273 -43.8243
lclavicle -2.0773e-014 -1.63003e-014
lhumerus -45.0646 -15.6143 80.3519
lradius 52.4515
lwrist 1.05246
lhand -9.85363 3.7328
lfingers 7.12502
lthumb 16.1246 33.082
rfemur 5.30079 15.9761 21.748
rtibia 19.0178
rfoot -15.1444 10.2455
rtoes -15.2781
lfemur -28.7624 -3.11106 -9.08338
ltibia 38.6204
lfoot -19.2171 -13.8712
ltoes 1.7938
923
root 43.4664 17.3391 0.261698 492.835 97.6921 487.315
lowerback 18.7873 0.388278 1.81058
upperback 5.10106 1.22374 1.43936
thorax -5.0182 0.707878 0.215757
lowerneck -0.85515 1.17113 6.22769
upperneck -16.3408 1.29638 -6.86859
head -4.64157 0.836232 -3.23494
rclavicle -5.96354e-016 1.19271e-015
rhumerus -44.2743 2.48271 -80.2148
rradius 38.5528
rwrist 6.29535
rhand 0.108277 -15.5694
rfingers 7.12502
rthumb 25.6941 -43.8552
lclavicle -5.96354e-016 1.19271e-015
lhumerus -44.9198 -15.5718 80.2191
lradius 52.5533
lwrist 1.07525
lhand -9.95121 3.8392
lfingers 7.12502
lthumb 16.0306 33.196
rfemur 5.27284 15.9741 21.7129
rtibia 19.0443
rfoot -15.1296 10.2581
rtoes -15.256
lfemur -28.706 -3.12849 -9.11237
ltibia 38.4887
lfoot -19.1607 -13.8338
ltoes 1.74337
924
root 43.4615 17.3422 0.269163 493.072 97.6578 487.558
lowerback 18.7766 0.384897 1.77089
upperback 5.09158 1.20954 1.41921
thorax -5.0231 0.700694 0.220119
lowerneck -0.832198 1.21353 6.21721
upperneck -16.327 1.34514 -6.93967
head -4.63671 0.864936 -3.25696
rclavicle -8.94531e-015 -1.33186e-014
rhumerus -44.1508 2.4585 -80.2462
rradius 38.8103
rwrist 5.7927
rhand -0.407007 -15.5131
rfingers 7.12502
rthumb 25.2005 -43.8693
lclavicle -8.94531e-015 -1.33186e-014
lhumerus -44.7759 -15.5499 80.0998
lradius 52.6552
lwrist 1.09425
lhand -10.0085 3.96917
lfingers 7.12502
lthumb 15.9755 33.3304
rfemur 5.24765 15.9741 21.6839
rtibia 19.067
rfoot -15.1161 10.2653
rtoes -15.2451
lfemur -28.6497 -3.14546 -9.13653
ltibia 38.3581
lfoot -19.1048 -13.7971
ltoes 1.68758
925
root 43.4565 17.3451 0.276991 493.263 97.6248 487.756
lowerback 18.7633 0.37892 1.72935
upperback 5.08335 1.19166 1.40034
thorax -5.02542 0.69178 0.227778
lowerneck -0.790281 1.25892 6.19478
upperneck -16.3282 1.40031 -6.99443
head -4.63953 0.896935 -3.27256
rclavicle -1.03368e-014 -1.35174e-014
rhumerus -44.0115 2.42799 -80.2784
rradius 39.0643
rwrist 5.35466
rhand -1.08529 -15.4248
rfingers 7.12502
rthumb 24.5505 -43.8708
lclavicle -1.03368e-014 -1.35174e-014
lhumerus -44.636 -15.5457 79.9929
lradius 52.7597
lwrist 1.11514
lhand -10.026 4.12461
lfingers 7.12502
lthumb 15.9586 33.4872
rfemur 5.22755 15.971 21.6629
rtibia 19.0848
rfoot -15.1032 10.2691
rtoes -15.2338
lfemur -28.5943 -3.16339 -9.15418
ltibia 38.2304
lfoot -19.05 -13.7648
ltoes 1.63158
